<?xml version="1.0" standalone="no"?><!DOCTYPE svg PUBLIC "-//W3C//DTD SVG 1.1//EN" "http://www.w3.org/Graphics/SVG/1.1/DTD/svg11.dtd"><svg t="1725672649622" class="icon" viewBox="0 0 1024 1024" version="1.1" xmlns="http://www.w3.org/2000/svg" p-id="4254" xmlns:xlink="http://www.w3.org/1999/xlink" width="200" height="200"><path d="M278.016 913.408c2.048-50.176-28.672-80.896-60.928-109.568-39.424-35.328-81.408-67.584-119.808-103.424-22.528-20.992-43.52-44.544-59.392-70.656-11.776-19.456-13.312-44.544-20.992-71.68 173.056 22.016 337.92 43.008 506.368 64.512v-92.672c14.336-1.024 25.6-2.048 37.376-3.072 8.192-16.896 1.024-24.576-13.824-29.696-44.544-16.384-89.088-33.28-133.632-50.176-8.704-3.072-16.896-6.656-26.624-10.752 3.072-9.216 5.632-16.384 9.216-26.624 51.2 18.944 100.352 36.864 148.992 56.32 17.92 7.168 30.208 9.728 45.056-8.192 19.968-23.552 49.152-28.672 78.336-18.432 29.184 10.24 46.08 32.256 52.224 62.464 1.024 5.12-0.512 10.752 2.048 14.848 2.56 4.608 8.192 7.68 12.288 11.776 3.584-4.608 10.24-8.704 10.752-13.312 1.024-27.648 0.512-55.296 0.512-86.016h71.68v-47.104-168.448c0-13.312-1.536-22.528-15.36-30.72-20.992-12.8-22.528-41.984-6.144-58.88 16.384-16.896 42.496-16.384 57.856 1.024 15.872 17.92 11.776 43.008-7.168 59.904-7.168 6.656-14.336 17.92-14.848 27.136-1.536 62.976 0 125.44-1.024 188.416-0.512 22.016 5.632 30.72 28.16 28.16 11.264-1.536 23.04-0.512 38.4-0.512V527.36c16.896 1.024 29.696 2.048 46.592 3.072v111.104c0 34.816 0 34.816 34.816 40.96 8.704 1.536 17.92 3.072 27.648 4.608-8.704 55.296-15.872 110.08-25.6 164.352-6.144 32.768-27.648 52.736-60.928 58.368-18.944 3.072-38.4 5.12-57.344 5.12-185.856 0.512-371.712 0-558.08 0-8.192-1.536-16.384-1.536-26.624-1.536z" p-id="4255"></path></svg>